<svg version="1.0" xmlns="http://www.w3.org/2000/svg" width="35" height="35" viewBox="0 0 2759.000000 2412.000000"
    preserveAspectRatio="xMidYMid meet">
    <g transform="translate(0.000000,2412.000000) scale(0.100000,-0.100000)" fill="#000000" stroke="none">
        <path
            d="M13787 24103 c-759 -1321 -5161 -9032 -5161 -9042 -1 -15 1384 -2220 1394 -2221 3 0 586 1016 1295 2257 l1290 2256 3 -2922 c1 -1606 1 -4235 0 -5841 l-3 -2920 -1674 2927 c-1453 2539 -3005 5224 -3021 5223 -8 -1 -7902 -13811 -7897 -13816 2 -2 2463 -3 5469 -2 l5465 3 -621 1150 c-342 633 -625 1156 -629 1163 -6 9 -626 12 -2843 12 -1559 0 -2834 2 -2834 5 0 4 3896 6823 3904 6832 1 1 881 -1537 1956 -3417 1075 -1881 2257 -3943 2626 -4583 l670 -1162 630 -2 629 -3 654 1153 c1082 1907 1660 2922 2592 4548 349 608 938 1637 1309 2286 391 685 678 1176 682 1170 4 -7 884 -1544 1956 -3417 l1948 -3405 -2852 -3 -2851 -2 -647 -1161 c-356 -638 -646 -1163 -643 -1165 2 -2 2479 -3 5503 -2 l5500 3 -3958 6920 c-2177 3806 -3962 6921 -3966 6923 -5 1 -307 -523 -672 -1165 -880 -1552 -1364 -2401 -2821 -4948 l-1224 -2140 -3 2958 c-1 1626 -1 4288 0 5914 l3 2957 1340 -2343 c738 -1289 1345 -2344 1350 -2344 15 0 1316 2345 1312 2364 -4 16 -5133 8988 -5147 9002 -4 5 -10 5 -13 0z">
        </path>
    </g>
</svg>
